  0
SECTION
  2
HEADER
  9
$ACADVER
  1
AC1009
  9
$DWGCODEPAGE
  3
ansi_1252
  9
$INSBASE
 10
0.0
 20
0.0
 30
0.0
  9
$EXTMIN
 10
1.000000000000000E+20
 20
1.000000000000000E+20
 30
1.000000000000000E+20
  9
$EXTMAX
 10
-1.000000000000000E+20
 20
-1.000000000000000E+20
 30
-1.000000000000000E+20
  9
$LIMMIN
 10
0.0
 20
0.0
  9
$LIMMAX
 10
12.0
 20
9.0
  9
$ORTHOMODE
 70
     0
  9
$REGENMODE
 70
     1
  9
$FILLMODE
 70
     1
  9
$QTEXTMODE
 70
     0
  9
$MIRRTEXT
 70
     1
  9
$DRAGMODE
 70
     2
  9
$LTSCALE
 40
1.0
  9
$OSMODE
 70
    37
  9
$ATTMODE
 70
     1
  9
$TEXTSIZE
 40
0.2
  9
$TRACEWID
 40
0.05
  9
$TEXTSTYLE
  7
STANDARD
  9
$CLAYER
  8
0
  9
$CELTYPE
  6
BYLAYER
  9
$CECOLOR
 62
   256
  9
$DIMSCALE
 40
1.0
  9
$DIMASZ
 40
0.18
  9
$DIMEXO
 40
0.0625
  9
$DIMDLI
 40
0.38
  9
$DIMRND
 40
0.0
  9
$DIMDLE
 40
0.0
  9
$DIMEXE
 40
0.18
  9
$DIMTP
 40
0.0
  9
$DIMTM
 40
0.0
  9
$DIMTXT
 40
0.18
  9
$DIMCEN
 40
0.09
  9
$DIMTSZ
 40
0.0
  9
$DIMTOL
 70
     0
  9
$DIMLIM
 70
     0
  9
$DIMTIH
 70
     1
  9
$DIMTOH
 70
     1
  9
$DIMSE1
 70
     0
  9
$DIMSE2
 70
     0
  9
$DIMTAD
 70
     0
  9
$DIMZIN
 70
     0
  9
$DIMBLK
  1

  9
$DIMASO
 70
     1
  9
$DIMSHO
 70
     1
  9
$DIMPOST
  1

  9
$DIMAPOST
  1

  9
$DIMALT
 70
     0
  9
$DIMALTD
 70
     2
  9
$DIMALTF
 40
0.0393700787401575
  9
$DIMLFAC
 40
1.0
  9
$DIMTOFL
 70
     0
  9
$DIMTVP
 40
0.0
  9
$DIMTIX
 70
     0
  9
$DIMSOXD
 70
     0
  9
$DIMSAH
 70
     0
  9
$DIMBLK1
  1

  9
$DIMBLK2
  1

  9
$DIMSTYLE
  2
STANDARD
  9
$DIMCLRD
 70
     0
  9
$DIMCLRE
 70
     0
  9
$DIMCLRT
 70
     0
  9
$DIMTFAC
 40
1.0
  9
$DIMGAP
 40
0.09
  9
$LUNITS
 70
     2
  9
$LUPREC
 70
     4
  9
$SKETCHINC
 40
0.1
  9
$FILLETRAD
 40
0.5
  9
$AUNITS
 70
     0
  9
$AUPREC
 70
     0
  9
$MENU
  1
.
  9
$ELEVATION
 40
0.0
  9
$PELEVATION
 40
0.0
  9
$THICKNESS
 40
0.0
  9
$LIMCHECK
 70
     0
  9
$CHAMFERA
 40
0.0
  9
$CHAMFERB
 40
0.0
  9
$SKPOLY
 70
     0
  9
$TDCREATE
 40
2458899.430101111
  9
$TDUPDATE
 40
2458899.430101158
  9
$TDINDWG
 40
0.0000000116
  9
$TDUSRTIMER
 40
0.0000000116
  9
$USRTIMER
 70
     1
  9
$ANGBASE
 50
0.0
  9
$ANGDIR
 70
     0
  9
$PDMODE
 70
     0
  9
$PDSIZE
 40
0.0
  9
$PLINEWID
 40
0.0
  9
$COORDS
 70
     1
  9
$SPLFRAME
 70
     0
  9
$SPLINETYPE
 70
     6
  9
$SPLINESEGS
 70
     8
  9
$ATTDIA
 70
     0
  9
$ATTREQ
 70
     1
  9
$HANDLING
 70
     1
  9
$HANDSEED
  5
1000041C
  9
$SURFTAB1
 70
     6
  9
$SURFTAB2
 70
     6
  9
$SURFTYPE
 70
     6
  9
$SURFU
 70
     6
  9
$SURFV
 70
     6
  9
$UCSNAME
  2

  9
$UCSORG
 10
0.0
 20
0.0
 30
0.0
  9
$UCSXDIR
 10
1.0
 20
0.0
 30
0.0
  9
$UCSYDIR
 10
0.0
 20
1.0
 30
0.0
  9
$PUCSNAME
  2

  9
$PUCSORG
 10
0.0
 20
0.0
 30
0.0
  9
$PUCSXDIR
 10
1.0
 20
0.0
 30
0.0
  9
$PUCSYDIR
 10
0.0
 20
1.0
 30
0.0
  9
$USERI1
 70
     0
  9
$USERI2
 70
     0
  9
$USERI3
 70
     0
  9
$USERI4
 70
     0
  9
$USERI5
 70
     0
  9
$USERR1
 40
0.0
  9
$USERR2
 40
0.0
  9
$USERR3
 40
0.0
  9
$USERR4
 40
0.0
  9
$USERR5
 40
0.0
  9
$WORLDVIEW
 70
     1
  9
$SHADEDGE
 70
     3
  9
$SHADEDIF
 70
    70
  9
$TILEMODE
 70
     1
  9
$MAXACTVP
 70
    64
  9
$PLIMCHECK
 70
     0
  9
$PEXTMIN
 10
1.000000000000000E+20
 20
1.000000000000000E+20
 30
1.000000000000000E+20
  9
$PEXTMAX
 10
-1.000000000000000E+20
 20
-1.000000000000000E+20
 30
-1.000000000000000E+20
  9
$PLIMMIN
 10
0.0
 20
0.0
  9
$PLIMMAX
 10
12.0
 20
9.0
  9
$UNITMODE
 70
     0
  9
$VISRETAIN
 70
     1
  9
$PLINEGEN
 70
     0
  9
$PSLTSCALE
 70
     1
  0
ENDSEC
  0
SECTION
  2
TABLES
  0
TABLE
  2
VPORT
 70
     1
  0
VPORT
  2
*ACTIVE
 70
     0
 10
0.0
 20
0.0
 11
1.0
 21
1.0
 12
10.42990654205607
 22
4.5
 13
0.0
 23
0.0
 14
0.5
 24
0.5
 15
0.5
 25
0.5
 16
0.0
 26
0.0
 36
1.0
 17
0.0
 27
0.0
 37
0.0
 40
9.0
 41
1.972972972850329
 42
50.0
 43
0.0
 44
0.0
 50
0.0
 51
0.0
 71
     0
 72
   100
 73
     1
 74
     3
 75
     0
 76
     0
 77
     0
 78
     0
  0
ENDTAB
  0
TABLE
  2
LTYPE
 70
     7
  0
LTYPE
  2
CONTINUOUS
 70
     0
  3
Solid line
 72
    65
 73
     0
 40
0.0
  0
LTYPE
  2
ONS_PHANTOM
 70
     0
  3
Onshape Phantom line ______ __ __ ______
 72
    65
 73
     6
 40
0.4999999999999999
 49
0.25
 49
-0.05
 49
0.05
 49
-0.05
 49
0.05
 49
-0.05
  0
LTYPE
  2
CENTER
 70
     0
  3
Center line ____ _ ____ _ ____ _
 72
    65
 73
     4
 40
0.7199999999999999
 49
0.45
 49
-0.09
 49
0.09
 49
-0.09
  0
LTYPE
  2
DASHED
 70
     0
  3
Dashed line __ __ __ __ __
 72
    65
 73
     2
 40
0.75
 49
0.5
 49
-0.25
  0
LTYPE
  2
ONS_DASHDOT
 70
     0
  3
Onshape Dashed with Dot _ . ____ . ____
 72
    65
 73
     4
 40
0.71
 49
0.5
 49
-0.1
 49
0.01
 49
-0.1
  0
LTYPE
  2
ONS_DOTTED
 70
     0
  3
Onshape Dotted line . . . . . . .
 72
    65
 73
     2
 40
0.11
 49
0.01
 49
-0.1
  0
LTYPE
  2
HIDDEN
 70
     0
  3
Hidden line ____ ____ ____ ____ 
 72
    65
 73
     2
 40
0.15
 49
0.1
 49
-0.05
  0
ENDTAB
  0
TABLE
  2
LAYER
 70
    36
  0
LAYER
  2
0
 70
     0
 62
     7
  6
CONTINUOUS
  0
LAYER
  2
SECTION_CUTTING_LINE
 70
     0
 62
     7
  6
ONS_PHANTOM
  0
LAYER
  2
DETAIL_VIEW_BORDER
 70
     0
 62
     7
  6
CONTINUOUS
  0
LAYER
  2
DETAIL_VIEW_PARENT_BORDER
 70
     0
 62
     7
  6
ONS_PHANTOM
  0
LAYER
  2
TEXT
 70
     0
 62
     7
  6
CONTINUOUS
  0
LAYER
  2
SKETCHED_GEOMETRY
 70
     0
 62
    -7
  6
CONTINUOUS
  0
LAYER
  2
VIRTUAL_SHARPS
 70
     0
 62
    -7
  6
CONTINUOUS
  0
LAYER
  2
CENTERLINES
 70
     0
 62
    -7
  6
CENTER
  0
LAYER
  2
CENTERMARKS
 70
     0
 62
    -7
  6
CONTINUOUS
  0
LAYER
  2
TABLES
 70
     0
 62
     7
  6
CONTINUOUS
  0
LAYER
  2
IMAGES
 70
     0
 62
    -7
  6
CONTINUOUS
  0
LAYER
  2
ANNOTATION_LINES
 70
     0
 62
    -7
  6
CONTINUOUS
  0
LAYER
  2
ANNOTATION_TEXT
 70
     0
 62
    -7
  6
CONTINUOUS
  0
LAYER
  2
SIDE_THREAD_SYMBOLS
 70
     0
 62
     7
  6
HIDDEN
  0
LAYER
  2
SIDE_THREAD_SYMBOLS_HIDDEN
 70
     0
 62
    -7
  6
HIDDEN
  0
LAYER
  2
SURFACE_THREAD_SYMBOLS
 70
     0
 62
     7
  6
HIDDEN
  0
LAYER
  2
SURFACE_THREAD_SYMBOLS_ON_
 70
     0
 62
     7
  6
HIDDEN
  0
LAYER
  2
SURFACE_THREAD_SYMBOLS_HID
 70
     0
 62
    -7
  6
HIDDEN
  0
LAYER
  2
BLIND_THREAD_SYMBOLS
 70
     0
 62
     7
  6
CONTINUOUS
  0
LAYER
  2
BLIND_THREAD_SYMBOLS_HIDDE
 70
     0
 62
    -7
  6
HIDDEN
  0
LAYER
  2
EXPLODE_LINES
 70
     0
 62
     7
  6
CONTINUOUS
  0
LAYER
  2
BREAK_LINES
 70
     0
 62
    -7
  6
CONTINUOUS
  0
LAYER
  2
SHEETMETAL_BEND_LINES_UP
 70
     0
 62
     7
  6
CENTER
  0
LAYER
  2
SHEETMETAL_BEND_LINES_DOWN
 70
     0
 62
     7
  6
CENTER
  0
LAYER
  2
SHEETMETAL_BEND_TANGENT_LI
 70
     0
 62
     7
  6
CONTINUOUS
  0
LAYER
  2
SHEETMETAL_CUT_LINES
 70
     0
 62
     7
  6
CONTINUOUS
  0
LAYER
  2
HIDDEN
 70
     0
 62
    -7
  6
HIDDEN
  0
LAYER
  2
VISIBLE
 70
     0
 62
     7
  6
CONTINUOUS
  0
LAYER
  2
MODELSKETCH_VISIBLE
 70
     0
 62
     7
  6
CONTINUOUS
  0
LAYER
  2
MODELSKETCH_CONSTRUCTION
 70
     0
 62
    -7
  6
CENTER
  0
LAYER
  2
HIDDEN_BASE_VIEW
 70
     0
 62
     7
  6
CONTINUOUS
  0
LAYER
  2
TANGENT_LINES
 70
     0
 62
    -7
  6
CONTINUOUS
  0
LAYER
  2
TANGENT_HIDDEN
 70
     0
 62
    -7
  6
HIDDEN
  0
LAYER
  2
INVISIBLE_LINES
 70
     0
 62
    -7
  6
CONTINUOUS
  0
LAYER
  2
VIEW_HATCHES
 70
     0
 62
    -7
  6
CONTINUOUS
  0
LAYER
  2
SECTION_JOG_LINES
 70
     0
 62
    -7
  6
CONTINUOUS
  0
ENDTAB
  0
TABLE
  2
STYLE
 70
     2
  0
STYLE
  2
STANDARD
 70
     0
 40
0.0
 41
1.0
 50
0.0
 71
     0
 42
0.2
  3
txt
  4

  0
STYLE
  2
TTFSTYLE
 70
     0
 40
0.0
 41
1.0
 50
0.0
 71
     0
 42
0.2
  3
Verdana.ttf
  4

  0
ENDTAB
  0
TABLE
  2
VIEW
 70
     0
  0
ENDTAB
  0
TABLE
  2
UCS
 70
     0
  0
ENDTAB
  0
TABLE
  2
APPID
 70
     1
  0
APPID
  2
ACAD
 70
     0
  0
ENDTAB
  0
TABLE
  2
DIMSTYLE
 70
     1
  0
DIMSTYLE
  2
STANDARD
 70
     0
  3

  4

  5

  6

  7

 40
1.0
 41
0.18
 42
0.0625
 43
0.38
 44
0.18
 45
0.0
 46
0.0
 47
0.0
 48
0.0
140
0.18
141
0.09
142
0.0
143
25.4
144
1.0
145
0.0
146
1.0
147
0.09
 71
     0
 72
     0
 73
     1
 74
     1
 75
     0
 76
     0
 77
     0
 78
     0
170
     0
171
     2
172
     0
173
     0
174
     0
175
     0
176
     0
177
     0
178
     0
  0
ENDTAB
  0
ENDSEC
  0
SECTION
  2
BLOCKS
  0
BLOCK
  8
0
  2
$MODEL_SPACE
 70
     0
 10
0.0
 20
0.0
 30
0.0
  3
$MODEL_SPACE
  1

  0
ENDBLK
  5
21
  8
0
  0
BLOCK
 67
     1
  8
0
  2
$PAPER_SPACE
 70
     0
 10
0.0
 20
0.0
 30
0.0
  3
$PAPER_SPACE
  1

  0
ENDBLK
  5
1D
 67
     1
  8
0
  0
ENDSEC
  0
SECTION
  2
ENTITIES
  0
LINE
  5
1000004D
  8
VISIBLE
 10
1.499999999999997
 20
2.0
 30
0.0
 11
-1.499999999999997
 21
2.0
 31
0.0
  0
ARC
  5
10000050
  8
VISIBLE
 10
1.499999999999997
 20
1.499999999999997
 30
0.0
 40
0.5000000000000033
 50
0.0
 51
90.0
  0
LINE
  5
10000053
  8
VISIBLE
 10
2.0
 20
-1.499999999999997
 30
0.0
 11
2.0
 21
1.499999999999997
 31
0.0
  0
ARC
  5
10000056
  8
VISIBLE
 10
1.499999999999996
 20
-1.499999999999996
 30
0.0
 40
0.500000000000004
 50
270.0000000000001
 51
0.0
  0
LINE
  5
10000059
  8
VISIBLE
 10
1.499999999999997
 20
-2.0
 30
0.0
 11
-1.499999999999997
 21
-2.0
 31
0.0
  0
ARC
  5
1000005C
  8
VISIBLE
 10
-1.499999999999997
 20
-1.499999999999997
 30
0.0
 40
0.5000000000000033
 50
180.0
 51
270.0
  0
LINE
  5
1000005F
  8
VISIBLE
 10
-2.0
 20
-1.499999999999997
 30
0.0
 11
-2.0
 21
1.499999999999997
 31
0.0
  0
ARC
  5
10000062
  8
VISIBLE
 10
-1.499999999999996
 20
1.499999999999996
 30
0.0
 40
0.5000000000000039
 50
90.00000000000006
 51
179.9999999999999
  0
ARC
  5
10000065
  8
VISIBLE
 10
-16.0
 20
6.500000000000001
 30
0.0
 40
0.5000000000000004
 50
0.0
 51
90.0
  0
LINE
  5
10000068
  8
VISIBLE
 10
-15.5
 20
3.499999999999999
 30
0.0
 11
-15.5
 21
6.500000000000001
 31
0.0
  0
ARC
  5
1000006B
  8
VISIBLE
 10
-16.0
 20
3.499999999999999
 30
0.0
 40
0.5000000000000002
 50
270.0
 51
0.0
  0
LINE
  5
1000006E
  8
VISIBLE
 10
-16.0
 20
2.999999999999999
 30
0.0
 11
-19.0
 21
2.999999999999999
 31
0.0
  0
ARC
  5
10000071
  8
VISIBLE
 10
-19.0
 20
3.499999999999999
 30
0.0
 40
0.5000000000000002
 50
180.0
 51
270.0
  0
LINE
  5
10000074
  8
VISIBLE
 10
-19.5
 20
3.499999999999999
 30
0.0
 11
-19.5
 21
6.500000000000001
 31
0.0
  0
ARC
  5
10000077
  8
VISIBLE
 10
-19.0
 20
6.500000000000001
 30
0.0
 40
0.5000000000000004
 50
90.0
 51
180.0
  0
LINE
  5
1000007A
  8
VISIBLE
 10
-16.0
 20
7.0
 30
0.0
 11
-19.0
 21
7.000000000000001
 31
0.0
  0
ARC
  5
1000007D
  8
VISIBLE
 10
-11.0
 20
6.499999999999998
 30
0.0
 40
0.5000000000000009
 50
0.0
 51
90.0
  0
LINE
  5
10000080
  8
VISIBLE
 10
-10.5
 20
3.5
 30
0.0
 11
-10.5
 21
6.500000000000001
 31
0.0
  0
ARC
  5
10000083
  8
VISIBLE
 10
-11.0
 20
3.5
 30
0.0
 40
0.5
 50
269.9999999999998
 51
0.0
  0
LINE
  5
10000086
  8
VISIBLE
 10
-11.0
 20
3.000000000000001
 30
0.0
 11
-14.0
 21
3.0
 31
0.0
  0
ARC
  5
10000089
  8
VISIBLE
 10
-14.0
 20
3.500000000000001
 30
0.0
 40
0.5000000000000007
 50
180.0
 51
270.0
  0
LINE
  5
1000008C
  8
VISIBLE
 10
-14.5
 20
3.500000000000001
 30
0.0
 11
-14.5
 21
6.500000000000001
 31
0.0
  0
ARC
  5
1000008F
  8
VISIBLE
 10
-14.0
 20
6.499999999999998
 30
0.0
 40
0.5000000000000018
 50
90.0
 51
179.9999999999997
  0
LINE
  5
10000092
  8
VISIBLE
 10
-11.0
 20
7.000000000000001
 30
0.0
 11
-14.0
 21
7.000000000000001
 31
0.0
  0
ARC
  5
10000095
  8
VISIBLE
 10
-9.000000000000002
 20
6.499999999999998
 30
0.0
 40
0.5000000000000018
 50
90.0
 51
179.9999999999997
  0
LINE
  5
10000098
  8
VISIBLE
 10
-6.0
 20
7.000000000000001
 30
0.0
 11
-9.000000000000002
 21
7.000000000000001
 31
0.0
  0
ARC
  5
1000009B
  8
VISIBLE
 10
-6.000000000000004
 20
6.499999999999999
 30
0.0
 40
0.5000000000000034
 50
0.0
 51
89.99999999999949
  0
LINE
  5
1000009E
  8
VISIBLE
 10
-5.5
 20
3.500000000000001
 30
0.0
 11
-5.5
 21
6.500000000000001
 31
0.0
  0
ARC
  5
100000A1
  8
VISIBLE
 10
-6.0
 20
3.500000000000003
 30
0.0
 40
0.5000000000000011
 50
270.0
 51
0.0
  0
LINE
  5
100000A4
  8
VISIBLE
 10
-6.0
 20
3.000000000000001
 30
0.0
 11
-9.000000000000002
 21
3.000000000000002
 31
0.0
  0
ARC
  5
100000A7
  8
VISIBLE
 10
-9.000000000000002
 20
3.500000000000002
 30
0.0
 40
0.5000000000000009
 50
180.0
 51
270.0
  0
LINE
  5
100000AA
  8
VISIBLE
 10
-9.500000000000002
 20
3.500000000000002
 30
0.0
 11
-9.500000000000002
 21
6.500000000000001
 31
0.0
  0
ARC
  5
100000AD
  8
VISIBLE
 10
-3.999999999999996
 20
6.499999999999998
 30
0.0
 40
0.5000000000000039
 50
90.0000000000005
 51
179.9999999999997
  0
LINE
  5
100000B0
  8
VISIBLE
 10
-1.0
 20
7.0
 30
0.0
 11
-4.0
 21
7.000000000000001
 31
0.0
  0
ARC
  5
100000B3
  8
VISIBLE
 10
-1.000000000000002
 20
6.499999999999999
 30
0.0
 40
0.5000000000000014
 50
0.0
 51
89.9999999999998
  0
LINE
  5
100000B6
  8
VISIBLE
 10
-0.5000000000000011
 20
3.5
 30
0.0
 11
-0.5
 21
6.500000000000001
 31
0.0
  0
ARC
  5
100000B9
  8
VISIBLE
 10
-1.000000000000002
 20
3.5
 30
0.0
 40
0.5
 50
270.0000000000001
 51
0.0
  0
LINE
  5
100000BC
  8
VISIBLE
 10
-1.000000000000001
 20
3.0
 30
0.0
 11
-4.0
 21
3.0
 31
0.0
  0
ARC
  5
100000BF
  8
VISIBLE
 10
-3.999999999999999
 20
3.500000000000002
 30
0.0
 40
0.5000000000000016
 50
180.0000000000002
 51
269.9999999999999
  0
LINE
  5
100000C2
  8
VISIBLE
 10
-4.500000000000001
 20
3.5
 30
0.0
 11
-4.5
 21
6.500000000000001
 31
0.0
  0
LINE
  5
100000C5
  8
VISIBLE
 10
16.0
 20
2.999999999999999
 30
0.0
 11
19.0
 21
2.999999999999999
 31
0.0
  0
ARC
  5
100000C8
  8
VISIBLE
 10
16.0
 20
3.499999999999999
 30
0.0
 40
0.5000000000000002
 50
180.0
 51
270.0
  0
LINE
  5
100000CB
  8
VISIBLE
 10
15.5
 20
3.499999999999999
 30
0.0
 11
15.5
 21
6.500000000000001
 31
0.0
  0
ARC
  5
100000CE
  8
VISIBLE
 10
16.0
 20
6.500000000000001
 30
0.0
 40
0.5000000000000004
 50
90.0
 51
180.0
  0
LINE
  5
100000D1
  8
VISIBLE
 10
16.0
 20
7.0
 30
0.0
 11
19.0
 21
7.0
 31
0.0
  0
ARC
  5
100000D4
  8
VISIBLE
 10
19.0
 20
6.500000000000001
 30
0.0
 40
0.5000000000000004
 50
0.0
 51
90.0
  0
LINE
  5
100000D7
  8
VISIBLE
 10
19.5
 20
3.499999999999999
 30
0.0
 11
19.5
 21
6.500000000000001
 31
0.0
  0
ARC
  5
100000DA
  8
VISIBLE
 10
19.0
 20
3.499999999999999
 30
0.0
 40
0.5000000000000002
 50
270.0
 51
0.0
  0
LINE
  5
100000DD
  8
VISIBLE
 10
1.000000000000001
 20
3.0
 30
0.0
 11
4.0
 21
3.0
 31
0.0
  0
ARC
  5
100000E0
  8
VISIBLE
 10
1.000000000000002
 20
3.5
 30
0.0
 40
0.5
 50
179.9999999999999
 51
269.9999999999999
  0
LINE
  5
100000E3
  8
VISIBLE
 10
0.5000000000000009
 20
3.5
 30
0.0
 11
0.5
 21
6.500000000000001
 31
0.0
  0
ARC
  5
100000E6
  8
VISIBLE
 10
1.000000000000002
 20
6.499999999999999
 30
0.0
 40
0.5000000000000014
 50
90.0000000000002
 51
179.9999999999998
  0
LINE
  5
100000E9
  8
VISIBLE
 10
1.0
 20
7.000000000000001
 30
0.0
 11
4.0
 21
7.000000000000001
 31
0.0
  0
ARC
  5
100000EC
  8
VISIBLE
 10
3.999999999999996
 20
6.499999999999998
 30
0.0
 40
0.5000000000000039
 50
0.0
 51
89.99999999999949
  0
LINE
  5
100000EF
  8
VISIBLE
 10
4.500000000000002
 20
3.5
 30
0.0
 11
4.500000000000001
 21
6.500000000000001
 31
0.0
  0
ARC
  5
100000F2
  8
VISIBLE
 10
3.999999999999999
 20
3.500000000000002
 30
0.0
 40
0.5000000000000016
 50
270.0000000000001
 51
0.0
  0
LINE
  5
100000F5
  8
VISIBLE
 10
6.0
 20
3.000000000000001
 30
0.0
 11
9.000000000000002
 21
3.000000000000001
 31
0.0
  0
ARC
  5
100000F8
  8
VISIBLE
 10
6.0
 20
3.500000000000003
 30
0.0
 40
0.5000000000000011
 50
180.0000000000002
 51
270.0
  0
LINE
  5
100000FB
  8
VISIBLE
 10
5.500000000000001
 20
3.500000000000001
 30
0.0
 11
5.5
 21
6.500000000000001
 31
0.0
  0
ARC
  5
100000FE
  8
VISIBLE
 10
6.000000000000004
 20
6.499999999999999
 30
0.0
 40
0.5000000000000034
 50
90.0000000000005
 51
179.9999999999998
  0
LINE
  5
10000101
  8
VISIBLE
 10
6.0
 20
7.000000000000001
 30
0.0
 11
9.000000000000002
 21
7.000000000000001
 31
0.0
  0
ARC
  5
10000104
  8
VISIBLE
 10
9.000000000000002
 20
6.499999999999998
 30
0.0
 40
0.5000000000000018
 50
0.0
 51
90.0
  0
LINE
  5
10000107
  8
VISIBLE
 10
9.500000000000002
 20
3.500000000000002
 30
0.0
 11
9.500000000000002
 21
6.500000000000001
 31
0.0
  0
ARC
  5
1000010A
  8
VISIBLE
 10
9.000000000000002
 20
3.500000000000002
 30
0.0
 40
0.5000000000000009
 50
270.0
 51
0.0
  0
ARC
  5
1000010D
  8
VISIBLE
 10
-13.50000000000001
 20
1.499999999999991
 30
0.0
 40
0.5000000000000077
 50
0.0
 51
89.9999999999998
  0
LINE
  5
10000110
  8
VISIBLE
 10
-13.00000000000001
 20
-1.500000000000001
 30
0.0
 11
-13.00000000000001
 21
1.499999999999997
 31
0.0
  0
ARC
  5
10000113
  8
VISIBLE
 10
-13.50000000000001
 20
-1.500000000000004
 30
0.0
 40
0.500000000000002
 50
270.0
 51
0.0
  0
LINE
  5
10000116
  8
VISIBLE
 10
-13.50000000000001
 20
-2.000000000000004
 30
0.0
 11
-16.5
 21
-2.000000000000005
 31
0.0
  0
ARC
  5
10000119
  8
VISIBLE
 10
-16.5
 20
-1.5
 30
0.0
 40
0.5000000000000063
 50
180.0
 51
269.9999999999996
  0
LINE
  5
1000011C
  8
VISIBLE
 10
-17.0
 20
-1.5
 30
0.0
 11
-17.0
 21
1.499999999999997
 31
0.0
  0
ARC
  5
1000011F
  8
VISIBLE
 10
-16.5
 20
1.499999999999991
 30
0.0
 40
0.500000000000005
 50
90.0000000000004
 51
179.9999999999993
  0
LINE
  5
10000122
  8
VISIBLE
 10
-13.50000000000001
 20
1.999999999999997
 30
0.0
 11
-16.5
 21
1.999999999999997
 31
0.0
  0
ARC
  5
10000125
  8
VISIBLE
 10
-8.500000000000005
 20
-1.500000000000001
 30
0.0
 40
0.5000000000000033
 50
270.0
 51
0.0
  0
LINE
  5
10000128
  8
VISIBLE
 10
-8.500000000000005
 20
-2.000000000000004
 30
0.0
 11
-11.5
 21
-2.000000000000004
 31
0.0
  0
ARC
  5
1000012B
  8
VISIBLE
 10
-11.5
 20
-1.499999999999997
 30
0.0
 40
0.5000000000000063
 50
180.0000000000004
 51
269.9999999999998
  0
LINE
  5
1000012E
  8
VISIBLE
 10
-12.0
 20
-1.5
 30
0.0
 11
-12.0
 21
1.499999999999994
 31
0.0
  0
ARC
  5
10000131
  8
VISIBLE
 10
-11.5
 20
1.499999999999994
 30
0.0
 40
0.5000000000000044
 50
90.0
 51
180.0
  0
LINE
  5
10000134
  8
VISIBLE
 10
-8.500000000000005
 20
1.999999999999997
 30
0.0
 11
-11.5
 21
1.999999999999997
 31
0.0
  0
ARC
  5
10000137
  8
VISIBLE
 10
-8.500000000000005
 20
1.499999999999993
 30
0.0
 40
0.5000000000000036
 50
0.0
 51
90.0
  0
LINE
  5
1000013A
  8
VISIBLE
 10
-8.000000000000002
 20
-1.500000000000001
 30
0.0
 11
-8.000000000000002
 21
1.499999999999993
 31
0.0
  0
ARC
  5
1000013D
  8
VISIBLE
 10
-3.500000000000004
 20
1.499999999999993
 30
0.0
 40
0.500000000000004
 50
0.0
 51
89.9999999999999
  0
LINE
  5
10000140
  8
VISIBLE
 10
-3.0
 20
-1.5
 30
0.0
 11
-3.0
 21
1.499999999999993
 31
0.0
  0
ARC
  5
10000143
  8
VISIBLE
 10
-3.500000000000004
 20
-1.5
 30
0.0
 40
0.5000000000000041
 50
270.0000000000001
 51
0.0
  0
LINE
  5
10000146
  8
VISIBLE
 10
-3.500000000000004
 20
-2.000000000000004
 30
0.0
 11
-6.499999999999997
 21
-2.000000000000003
 31
0.0
  0
ARC
  5
10000149
  8
VISIBLE
 10
-6.499999999999997
 20
-1.499999999999998
 30
0.0
 40
0.5000000000000039
 50
180.0000000000002
 51
270.0
  0
LINE
  5
1000014C
  8
VISIBLE
 10
-7.0
 20
-1.499999999999999
 30
0.0
 11
-6.999999999999999
 21
1.499999999999994
 31
0.0
  0
ARC
  5
1000014F
  8
VISIBLE
 10
-6.499999999999998
 20
1.499999999999992
 30
0.0
 40
0.5000000000000037
 50
89.9999999999999
 51
179.9999999999998
  0
LINE
  5
10000152
  8
VISIBLE
 10
-3.500000000000003
 20
1.999999999999997
 30
0.0
 11
-6.499999999999997
 21
1.999999999999997
 31
0.0
  0
ARC
  5
10000155
  8
VISIBLE
 10
9.999999999999996
 20
-3.499999999999997
 30
0.0
 40
0.5000000000000052
 50
0.0
 51
89.9999999999998
  0
LINE
  5
10000158
  8
VISIBLE
 10
10.5
 20
-6.49999999999999
 30
0.0
 11
10.5
 21
-3.499999999999997
 31
0.0
  0
ARC
  5
1000015B
  8
VISIBLE
 10
9.999999999999998
 20
-6.49999999999999
 30
0.0
 40
0.5000000000000039
 50
270.0
 51
0.0
  0
LINE
  5
1000015E
  8
VISIBLE
 10
9.999999999999998
 20
-6.999999999999994
 30
0.0
 11
-9.999999999999995
 21
-6.999999999999993
 31
0.0
  0
ARC
  5
10000161
  8
VISIBLE
 10
-9.999999999999993
 20
-6.49999999999999
 30
0.0
 40
0.5000000000000043
 50
180.0
 51
269.9999999999998
  0
LINE
  5
10000164
  8
VISIBLE
 10
-10.5
 20
-6.49999999999999
 30
0.0
 11
-10.5
 21
-3.499999999999997
 31
0.0
  0
ARC
  5
10000167
  8
VISIBLE
 10
-9.999999999999995
 20
-3.499999999999997
 30
0.0
 40
0.5000000000000034
 50
90.0
 51
180.0
  0
LINE
  5
1000016A
  8
VISIBLE
 10
9.999999999999998
 20
-2.999999999999994
 30
0.0
 11
-9.999999999999995
 21
-2.999999999999994
 31
0.0
  0
LINE
  5
1000016D
  8
VISIBLE
 10
-21.0
 20
-6.999999999999999
 30
0.0
 11
-21.0
 21
6.999999999999999
 31
0.0
  0
ARC
  5
10000170
  8
VISIBLE
 10
-19.5
 20
-6.999999999999999
 30
0.0
 40
1.5
 50
180.0
 51
270.0
  0
LINE
  5
10000173
  8
VISIBLE
 10
19.5
 20
-8.500000000000004
 30
0.0
 11
-19.5
 21
-8.500000000000002
 31
0.0
  0
ARC
  5
10000176
  8
VISIBLE
 10
19.5
 20
-7.000000000000012
 30
0.0
 40
1.499999999999997
 50
270.0
 51
0.0
  0
LINE
  5
10000179
  8
VISIBLE
 10
21.0
 20
-6.999999999999994
 30
0.0
 11
21.0
 21
6.999999999999994
 31
0.0
  0
ARC
  5
1000017C
  8
VISIBLE
 10
19.5
 20
7.000000000000012
 30
0.0
 40
1.499999999999997
 50
0.0
 51
90.0
  0
LINE
  5
1000017F
  8
VISIBLE
 10
19.5
 20
8.500000000000004
 30
0.0
 11
-19.5
 21
8.499999999999998
 31
0.0
  0
ARC
  5
10000182
  8
VISIBLE
 10
-19.5
 20
6.999999999999999
 30
0.0
 40
1.5
 50
90.0
 51
180.0
  0
ARC
  5
10000185
  8
VISIBLE
 10
3.500000000000004
 20
-1.5
 30
0.0
 40
0.5000000000000041
 50
180.0000000000001
 51
269.9999999999999
  0
LINE
  5
10000188
  8
VISIBLE
 10
3.0
 20
-1.5
 30
0.0
 11
2.999999999999999
 21
1.499999999999993
 31
0.0
  0
ARC
  5
1000018B
  8
VISIBLE
 10
3.500000000000004
 20
1.499999999999993
 30
0.0
 40
0.500000000000004
 50
90.0000000000001
 51
180.0
  0
LINE
  5
1000018E
  8
VISIBLE
 10
3.500000000000003
 20
1.999999999999997
 30
0.0
 11
6.499999999999997
 21
1.999999999999997
 31
0.0
  0
ARC
  5
10000191
  8
VISIBLE
 10
6.499999999999998
 20
1.499999999999992
 30
0.0
 40
0.5000000000000037
 50
0.0
 51
90.0000000000001
  0
LINE
  5
10000194
  8
VISIBLE
 10
7.000000000000001
 20
-1.499999999999999
 30
0.0
 11
6.999999999999999
 21
1.499999999999994
 31
0.0
  0
ARC
  5
10000197
  8
VISIBLE
 10
6.499999999999997
 20
-1.499999999999998
 30
0.0
 40
0.5000000000000039
 50
270.0
 51
0.0
  0
LINE
  5
1000019A
  8
VISIBLE
 10
3.500000000000004
 20
-2.000000000000004
 30
0.0
 11
6.499999999999997
 21
-2.000000000000003
 31
0.0
  0
ARC
  5
1000019D
  8
VISIBLE
 10
13.50000000000001
 20
-1.500000000000004
 30
0.0
 40
0.500000000000002
 50
179.9999999999997
 51
270.0
  0
LINE
  5
100001A0
  8
VISIBLE
 10
13.00000000000001
 20
-1.500000000000001
 30
0.0
 11
13.0
 21
1.499999999999997
 31
0.0
  0
ARC
  5
100001A3
  8
VISIBLE
 10
13.50000000000001
 20
1.499999999999991
 30
0.0
 40
0.5000000000000077
 50
90.0000000000002
 51
179.9999999999993
  0
LINE
  5
100001A6
  8
VISIBLE
 10
13.50000000000001
 20
1.999999999999997
 30
0.0
 11
16.5
 21
1.999999999999997
 31
0.0
  0
ARC
  5
100001A9
  8
VISIBLE
 10
16.5
 20
1.499999999999991
 30
0.0
 40
0.500000000000005
 50
0.0
 51
89.99999999999959
  0
LINE
  5
100001AC
  8
VISIBLE
 10
17.0
 20
-1.5
 30
0.0
 11
17.0
 21
1.499999999999997
 31
0.0
  0
ARC
  5
100001AF
  8
VISIBLE
 10
16.5
 20
-1.5
 30
0.0
 40
0.5000000000000063
 50
270.0000000000004
 51
0.0
  0
LINE
  5
100001B2
  8
VISIBLE
 10
13.50000000000001
 20
-2.000000000000004
 30
0.0
 11
16.5
 21
-2.000000000000005
 31
0.0
  0
ARC
  5
100001B5
  8
VISIBLE
 10
8.500000000000005
 20
-1.500000000000001
 30
0.0
 40
0.5000000000000033
 50
180.0
 51
270.0
  0
LINE
  5
100001B8
  8
VISIBLE
 10
8.000000000000002
 20
-1.500000000000001
 30
0.0
 11
8.000000000000002
 21
1.499999999999993
 31
0.0
  0
ARC
  5
100001BB
  8
VISIBLE
 10
8.500000000000005
 20
1.499999999999993
 30
0.0
 40
0.5000000000000036
 50
90.0
 51
180.0
  0
LINE
  5
100001BE
  8
VISIBLE
 10
8.500000000000005
 20
1.999999999999997
 30
0.0
 11
11.5
 21
1.999999999999997
 31
0.0
  0
ARC
  5
100001C1
  8
VISIBLE
 10
11.5
 20
1.499999999999994
 30
0.0
 40
0.5000000000000044
 50
0.0
 51
90.0
  0
LINE
  5
100001C4
  8
VISIBLE
 10
12.0
 20
-1.5
 30
0.0
 11
12.0
 21
1.499999999999994
 31
0.0
  0
ARC
  5
100001C7
  8
VISIBLE
 10
11.5
 20
-1.499999999999997
 30
0.0
 40
0.5000000000000063
 50
270.0000000000002
 51
0.0
  0
LINE
  5
100001CA
  8
VISIBLE
 10
8.500000000000005
 20
-2.000000000000004
 30
0.0
 11
11.5
 21
-2.000000000000004
 31
0.0
  0
ARC
  5
100001CD
  8
VISIBLE
 10
11.0
 20
6.499999999999998
 30
0.0
 40
0.5000000000000009
 50
90.0
 51
179.9999999999997
  0
LINE
  5
100001D0
  8
VISIBLE
 10
11.0
 20
6.999999999999999
 30
0.0
 11
14.0
 21
7.000000000000001
 31
0.0
  0
ARC
  5
100001D3
  8
VISIBLE
 10
14.0
 20
6.499999999999998
 30
0.0
 40
0.5000000000000018
 50
0.0
 51
90.0
  0
LINE
  5
100001D6
  8
VISIBLE
 10
14.5
 20
3.500000000000001
 30
0.0
 11
14.5
 21
6.500000000000001
 31
0.0
  0
ARC
  5
100001D9
  8
VISIBLE
 10
14.0
 20
3.500000000000001
 30
0.0
 40
0.5000000000000007
 50
270.0
 51
0.0
  0
LINE
  5
100001DC
  8
VISIBLE
 10
11.0
 20
3.000000000000001
 30
0.0
 11
14.0
 21
3.000000000000001
 31
0.0
  0
ARC
  5
100001DF
  8
VISIBLE
 10
11.0
 20
3.5
 30
0.0
 40
0.5
 50
180.0
 51
270.0000000000002
  0
LINE
  5
100001E2
  8
VISIBLE
 10
10.5
 20
3.5
 30
0.0
 11
10.5
 21
6.500000000000001
 31
0.0
  0
LINE
  5
100001E5
  8
VISIBLE
 10
17.91847043112309
 20
-5.991980482768843
 30
0.0
 11
17.92536740676731
 21
-5.991980482768843
 31
0.0
  0
LINE
  5
100001E8
  8
VISIBLE
 10
17.92536740676731
 20
-5.991980482768843
 30
0.0
 11
18.14554009079412
 21
-5.710265554532134
 31
0.0
  0
LINE
  5
100001EB
  8
VISIBLE
 10
18.14554009079412
 20
-5.710265554532134
 30
0.0
 11
18.66440487387416
 21
-5.146305161470695
 31
0.0
  0
LINE
  5
100001EE
  8
VISIBLE
 10
18.66440487387416
 20
-5.146305161470695
 30
0.0
 11
19.2347317059918
 21
-5.146305161470693
 31
0.0
  0
LINE
  5
100001F1
  8
VISIBLE
 10
19.2347317059918
 20
-5.146305161470693
 30
0.0
 11
18.49887745841304
 21
-5.950598628903565
 31
0.0
  0
LINE
  5
100001F4
  8
VISIBLE
 10
18.49887745841304
 20
-5.950598628903565
 30
0.0
 11
19.27982731597319
 21
-7.000000000000012
 31
0.0
  0
LINE
  5
100001F7
  8
VISIBLE
 10
19.27982731597319
 20
-7.000000000000012
 30
0.0
 11
18.69623706915515
 21
-7.000000000000012
 31
0.0
  0
LINE
  5
100001FA
  8
VISIBLE
 10
18.69623706915515
 20
-7.000000000000012
 30
0.0
 11
18.16251726161065
 21
-6.248760191368784
 31
0.0
  0
LINE
  5
100001FD
  8
VISIBLE
 10
18.16251726161065
 20
-6.248760191368784
 30
0.0
 11
17.94499726052392
 21
-6.422776192238165
 31
0.0
  0
LINE
  5
10000200
  8
VISIBLE
 10
17.94499726052392
 20
-6.422776192238165
 30
0.0
 11
17.94499726052392
 21
-7.000000000000012
 31
0.0
  0
LINE
  5
10000203
  8
VISIBLE
 10
17.94499726052392
 20
-7.000000000000012
 30
0.0
 11
17.43939589214429
 21
-7.000000000000012
 31
0.0
  0
LINE
  5
10000206
  8
VISIBLE
 10
17.43939589214429
 20
-7.000000000000012
 30
0.0
 11
17.43939589214428
 21
-4.420000572476239
 31
0.0
  0
LINE
  5
10000209
  8
VISIBLE
 10
17.43939589214428
 20
-4.420000572476239
 30
0.0
 11
17.94499726052392
 21
-4.420000572476239
 31
0.0
  0
LINE
  5
1000020C
  8
VISIBLE
 10
17.94499726052392
 20
-4.420000572476239
 30
0.0
 11
17.94499726052392
 21
-5.570734431883818
 31
0.0
  0
LINE
  5
1000020F
  8
VISIBLE
 10
17.94499726052392
 20
-5.570734431883818
 30
0.0
 11
17.91847043112309
 21
-5.991980482768843
 31
0.0
  0
LINE
  5
10000212
  8
VISIBLE
 10
15.76502242036451
 20
-6.069969361207255
 30
0.0
 11
15.76502242036451
 21
-7.000000000000012
 31
0.0
  0
LINE
  5
10000215
  8
VISIBLE
 10
15.76502242036451
 20
-7.000000000000012
 30
0.0
 11
15.25942105198488
 21
-7.000000000000012
 31
0.0
  0
LINE
  5
10000218
  8
VISIBLE
 10
15.25942105198488
 20
-7.000000000000012
 30
0.0
 11
15.25942105198488
 21
-5.917174823858531
 31
0.0
  0
POLYLINE
  5
1000021B
  8
VISIBLE
 66
     1
 10
0.0
 20
0.0
 30
0.0
  0
VERTEX
  5
100002A2
  8
VISIBLE
 10
15.25942105198488
 20
-5.917174823858531
 30
0.0
  0
VERTEX
  5
100002A3
  8
VISIBLE
 10
15.25915889230369
 20
-5.892498655290127
 30
0.0
  0
VERTEX
  5
100002A4
  8
VISIBLE
 10
15.25837241326013
 20
-5.868605857152467
 30
0.0
  0
VERTEX
  5
100002A5
  8
VISIBLE
 10
15.25706161485419
 20
-5.845496429445548
 30
0.0
  0
VERTEX
  5
100002A6
  8
VISIBLE
 10
15.25522649708588
 20
-5.823170372169374
 30
0.0
  0
VERTEX
  5
100002A7
  8
VISIBLE
 10
15.25286705995519
 20
-5.801627685323942
 30
0.0
  0
VERTEX
  5
100002A8
  8
VISIBLE
 10
15.24998330346212
 20
-5.780868368909253
 30
0.0
  0
VERTEX
  5
100002A9
  8
VISIBLE
 10
15.24657522760668
 20
-5.760892422925307
 30
0.0
  0
VERTEX
  5
100002AA
  8
VISIBLE
 10
15.24264283238886
 20
-5.741699847372105
 30
0.0
  0
VERTEX
  5
100002AB
  8
VISIBLE
 10
15.23818611780867
 20
-5.723290642249644
 30
0.0
  0
VERTEX
  5
100002AC
  8
VISIBLE
 10
15.2332050838661
 20
-5.705664807557929
 30
0.0
  0
VERTEX
  5
100002AD
  8
VISIBLE
 10
15.22769973056116
 20
-5.688822343296954
 30
0.0
  0
VERTEX
  5
100002AE
  8
VISIBLE
 10
15.22167005789384
 20
-5.672763249466723
 30
0.0
  0
VERTEX
  5
100002AF
  8
VISIBLE
 10
15.21511606586414
 20
-5.657487526067235
 30
0.0
  0
VERTEX
  5
100002B0
  8
VISIBLE
 10
15.20803775447207
 20
-5.642995173098489
 30
0.0
  0
VERTEX
  5
100002B1
  8
VISIBLE
 10
15.20043512371763
 20
-5.629286190560488
 30
0.0
  0
VERTEX
  5
100002B2
  8
VISIBLE
 10
15.19230817360081
 20
-5.616360578453229
 30
0.0
  0
SEQEND
  5
10000407
  8
VISIBLE
  0
POLYLINE
  5
1000021E
  8
VISIBLE
 66
     1
 10
0.0
 20
0.0
 30
0.0
  0
VERTEX
  5
100002B3
  8
VISIBLE
 10
15.19230817360081
 20
-5.616360578453229
 30
0.0
  0
VERTEX
  5
100002B4
  8
VISIBLE
 10
15.18361752835922
 20
-5.604218336776713
 30
0.0
  0
VERTEX
  5
100002B5
  8
VISIBLE
 10
15.17432381223047
 20
-5.59285946553094
 30
0.0
  0
VERTEX
  5
100002B6
  8
VISIBLE
 10
15.16442702521456
 20
-5.58228396471591
 30
0.0
  0
VERTEX
  5
100002B7
  8
VISIBLE
 10
15.15392716731149
 20
-5.572491834331622
 30
0.0
  0
VERTEX
  5
100002B8
  8
VISIBLE
 10
15.14282423852127
 20
-5.563483074378078
 30
0.0
  0
VERTEX
  5
100002B9
  8
VISIBLE
 10
15.13111823884388
 20
-5.555257684855277
 30
0.0
  0
VERTEX
  5
100002BA
  8
VISIBLE
 10
15.11880916827934
 20
-5.547815665763219
 30
0.0
  0
VERTEX
  5
100002BB
  8
VISIBLE
 10
15.10589702682763
 20
-5.541157017101904
 30
0.0
  0
VERTEX
  5
100002BC
  8
VISIBLE
 10
15.09238181448877
 20
-5.535281738871332
 30
0.0
  0
VERTEX
  5
100002BD
  8
VISIBLE
 10
15.07826353126275
 20
-5.530189831071502
 30
0.0
  0
VERTEX
  5
100002BE
  8
VISIBLE
 10
15.06354217714957
 20
-5.525881293702415
 30
0.0
  0
VERTEX
  5
100002BF
  8
VISIBLE
 10
15.04821775214922
 20
-5.522356126764073
 30
0.0
  0
VERTEX
  5
100002C0
  8
VISIBLE
 10
15.03229025626172
 20
-5.519614330256472
 30
0.0
  0
VERTEX
  5
100002C1
  8
VISIBLE
 10
15.01575968948707
 20
-5.517655904179614
 30
0.0
  0
VERTEX
  5
100002C2
  8
VISIBLE
 10
14.99862605182524
 20
-5.516480848533501
 30
0.0
  0
VERTEX
  5
100002C3
  8
VISIBLE
 10
14.98088934327627
 20
-5.516089163318129
 30
0.0
  0
SEQEND
  5
10000408
  8
VISIBLE
  0
POLYLINE
  5
10000221
  8
VISIBLE
 66
     1
 10
0.0
 20
0.0
 30
0.0
  0
VERTEX
  5
100002C4
  8
VISIBLE
 10
14.98088934327627
 20
-5.516089163318129
 30
0.0
  0
VERTEX
  5
100002C5
  8
VISIBLE
 10
14.95703281228818
 20
-5.516646641217255
 30
0.0
  0
VERTEX
  5
100002C6
  8
VISIBLE
 10
14.93400731712741
 20
-5.518319074914634
 30
0.0
  0
VERTEX
  5
100002C7
  8
VISIBLE
 10
14.91181285779397
 20
-5.521106464410268
 30
0.0
  0
VERTEX
  5
100002C8
  8
VISIBLE
 10
14.89044943428785
 20
-5.525008809704155
 30
0.0
  0
VERTEX
  5
100002C9
  8
VISIBLE
 10
14.86991704660905
 20
-5.530026110796294
 30
0.0
  0
VERTEX
  5
100002CA
  8
VISIBLE
 10
14.85021569475757
 20
-5.536158367686688
 30
0.0
  0
VERTEX
  5
100002CB
  8
VISIBLE
 10
14.83134537873342
 20
-5.543405580375333
 30
0.0
  0
VERTEX
  5
100002CC
  8
VISIBLE
 10
14.81330609853659
 20
-5.551767748862233
 30
0.0
  0
VERTEX
  5
100002CD
  8
VISIBLE
 10
14.79609785416708
 20
-5.561244873147384
 30
0.0
  0
VERTEX
  5
100002CE
  8
VISIBLE
 10
14.77972064562489
 20
-5.57183695323079
 30
0.0
  0
VERTEX
  5
100002CF
  8
VISIBLE
 10
14.76417447291003
 20
-5.583543989112449
 30
0.0
  0
VERTEX
  5
100002D0
  8
VISIBLE
 10
14.74945933602249
 20
-5.596365980792362
 30
0.0
  0
VERTEX
  5
100002D1
  8
VISIBLE
 10
14.73557523496227
 20
-5.610302928270526
 30
0.0
  0
VERTEX
  5
100002D2
  8
VISIBLE
 10
14.72252216972937
 20
-5.625354831546946
 30
0.0
  0
VERTEX
  5
100002D3
  8
VISIBLE
 10
14.7103001403238
 20
-5.641521690621617
 30
0.0
  0
VERTEX
  5
100002D4
  8
VISIBLE
 10
14.69890914674555
 20
-5.658803505494542
 30
0.0
  0
SEQEND
  5
10000409
  8
VISIBLE
  0
POLYLINE
  5
10000224
  8
VISIBLE
 66
     1
 10
0.0
 20
0.0
 30
0.0
  0
VERTEX
  5
100002D5
  8
VISIBLE
 10
14.69890914674555
 20
-5.658803505494542
 30
0.0
  0
VERTEX
  5
100002D6
  8
VISIBLE
 10
14.68827665469548
 20
-5.677359851623835
 30
0.0
  0
VERTEX
  5
100002D7
  8
VISIBLE
 10
14.67833012987444
 20
-5.697350304467609
 30
0.0
  0
VERTEX
  5
100002D8
  8
VISIBLE
 10
14.66906957228245
 20
-5.718774864025865
 30
0.0
  0
VERTEX
  5
100002D9
  8
VISIBLE
 10
14.66049498191949
 20
-5.741633530298603
 30
0.0
  0
VERTEX
  5
100002DA
  8
VISIBLE
 10
14.65260635878556
 20
-5.765926303285823
 30
0.0
  0
VERTEX
  5
100002DB
  8
VISIBLE
 10
14.64540370288068
 20
-5.791653182987525
 30
0.0
  0
VERTEX
  5
100002DC
  8
VISIBLE
 10
14.63888701420483
 20
-5.818814169403708
 30
0.0
  0
VERTEX
  5
100002DD
  8
VISIBLE
 10
14.63305629275801
 20
-5.847409262534374
 30
0.0
  0
VERTEX
  5
100002DE
  8
VISIBLE
 10
14.62791153854024
 20
-5.877438462379521
 30
0.0
  0
VERTEX
  5
100002DF
  8
VISIBLE
 10
14.6234527515515
 20
-5.908901768939149
 30
0.0
  0
VERTEX
  5
100002E0
  8
VISIBLE
 10
14.61967993179179
 20
-5.941799182213261
 30
0.0
  0
VERTEX
  5
100002E1
  8
VISIBLE
 10
14.61659307926113
 20
-5.976130702201853
 30
0.0
  0
VERTEX
  5
100002E2
  8
VISIBLE
 10
14.6141921939595
 20
-6.011896328904928
 30
0.0
  0
VERTEX
  5
100002E3
  8
VISIBLE
 10
14.61247727588691
 20
-6.049096062322485
 30
0.0
  0
VERTEX
  5
100002E4
  8
VISIBLE
 10
14.61144832504335
 20
-6.087729902454523
 30
0.0
  0
VERTEX
  5
100002E5
  8
VISIBLE
 10
14.61110534142883
 20
-6.127797849301043
 30
0.0
  0
SEQEND
  5
1000040A
  8
VISIBLE
  0
LINE
  5
10000227
  8
VISIBLE
 10
14.61110534142883
 20
-6.127797849301044
 30
0.0
 11
14.61110534142883
 21
-7.000000000000012
 31
0.0
  0
LINE
  5
1000022A
  8
VISIBLE
 10
14.61110534142883
 20
-7.000000000000012
 30
0.0
 11
14.1055039730492
 21
-7.000000000000012
 31
0.0
  0
LINE
  5
1000022D
  8
VISIBLE
 10
14.1055039730492
 20
-7.000000000000012
 30
0.0
 11
14.1055039730492
 21
-5.146305161470695
 31
0.0
  0
LINE
  5
10000230
  8
VISIBLE
 10
14.1055039730492
 20
-5.146305161470695
 30
0.0
 11
14.49173460912514
 21
-5.146305161470695
 31
0.0
  0
LINE
  5
10000233
  8
VISIBLE
 10
14.49173460912514
 20
-5.146305161470695
 30
0.0
 11
14.55964329239124
 21
-5.383455016314028
 31
0.0
  0
LINE
  5
10000236
  8
VISIBLE
 10
14.55964329239124
 20
-5.383455016314028
 30
0.0
 11
14.58776173155611
 21
-5.383455016314028
 31
0.0
  0
POLYLINE
  5
10000239
  8
VISIBLE
 66
     1
 10
0.0
 20
0.0
 30
0.0
  0
VERTEX
  5
100002E6
  8
VISIBLE
 10
14.58776173155611
 20
-5.383455016314028
 30
0.0
  0
VERTEX
  5
100002E7
  8
VISIBLE
 10
14.597370453784
 20
-5.367691240701736
 30
0.0
  0
VERTEX
  5
100002E8
  8
VISIBLE
 10
14.60749520574007
 20
-5.352364743292848
 30
0.0
  0
VERTEX
  5
100002E9
  8
VISIBLE
 10
14.61813598742432
 20
-5.337475524087364
 30
0.0
  0
VERTEX
  5
100002EA
  8
VISIBLE
 10
14.62929279883677
 20
-5.323023583085284
 30
0.0
  0
VERTEX
  5
100002EB
  8
VISIBLE
 10
14.64096563997741
 20
-5.309008920286608
 30
0.0
  0
VERTEX
  5
100002EC
  8
VISIBLE
 10
14.65315451084623
 20
-5.295431535691337
 30
0.0
  0
VERTEX
  5
100002ED
  8
VISIBLE
 10
14.66585941144324
 20
-5.28229142929947
 30
0.0
  0
VERTEX
  5
100002EE
  8
VISIBLE
 10
14.67908034176844
 20
-5.269588601111007
 30
0.0
  0
VERTEX
  5
100002EF
  8
VISIBLE
 10
14.69281730182182
 20
-5.257323051125948
 30
0.0
  0
VERTEX
  5
100002F0
  8
VISIBLE
 10
14.7070702916034
 20
-5.245494779344293
 30
0.0
  0
VERTEX
  5
100002F1
  8
VISIBLE
 10
14.72183931111316
 20
-5.234103785766043
 30
0.0
  0
VERTEX
  5
100002F2
  8
VISIBLE
 10
14.73712436035111
 20
-5.223150070391196
 30
0.0
  0
VERTEX
  5
100002F3
  8
VISIBLE
 10
14.75292543931724
 20
-5.212633633219754
 30
0.0
  0
VERTEX
  5
100002F4
  8
VISIBLE
 10
14.76924254801157
 20
-5.202554474251716
 30
0.0
  0
VERTEX
  5
100002F5
  8
VISIBLE
 10
14.78607568643408
 20
-5.192912593487081
 30
0.0
  0
VERTEX
  5
100002F6
  8
VISIBLE
 10
14.80342485458478
 20
-5.183707990925852
 30
0.0
  0
SEQEND
  5
1000040B
  8
VISIBLE
  0
POLYLINE
  5
1000023C
  8
VISIBLE
 66
     1
 10
0.0
 20
0.0
 30
0.0
  0
VERTEX
  5
100002F7
  8
VISIBLE
 10
14.80342485458478
 20
-5.183707990925852
 30
0.0
  0
VERTEX
  5
100002F8
  8
VISIBLE
 10
14.82119472167051
 20
-5.175002838824435
 30
0.0
  0
VERTEX
  5
100002F9
  8
VISIBLE
 10
14.83928995689811
 20
-5.166859309439237
 30
0.0
  0
VERTEX
  5
100002FA
  8
VISIBLE
 10
14.85771056026758
 20
-5.15927740277026
 30
0.0
  0
VERTEX
  5
100002FB
  8
VISIBLE
 10
14.87645653177891
 20
-5.152257118817505
 30
0.0
  0
VERTEX
  5
100002FC
  8
VISIBLE
 10
14.89552787143212
 20
-5.145798457580969
 30
0.0
  0
VERTEX
  5
100002FD
  8
VISIBLE
 10
14.9149245792272
 20
-5.139901419060654
 30
0.0
  0
VERTEX
  5
100002FE
  8
VISIBLE
 10
14.93464665516414
 20
-5.134566003256559
 30
0.0
  0
VERTEX
  5
100002FF
  8
VISIBLE
 10
14.95469409924296
 20
-5.129792210168684
 30
0.0
  0
VERTEX
  5
10000300
  8
VISIBLE
 10
14.97506691146364
 20
-5.125580039797031
 30
0.0
  0
VERTEX
  5
10000301
  8
VISIBLE
 10
14.9957650918262
 20
-5.121929492141597
 30
0.0
  0
VERTEX
  5
10000302
  8
VISIBLE
 10
15.01678864033062
 20
-5.118840567202385
 30
0.0
  0
VERTEX
  5
10000303
  8
VISIBLE
 10
15.03813755697691
 20
-5.116313264979393
 30
0.0
  0
VERTEX
  5
10000304
  8
VISIBLE
 10
15.05981184176507
 20
-5.114347585472621
 30
0.0
  0
VERTEX
  5
10000305
  8
VISIBLE
 10
15.08181149469511
 20
-5.11294352868207
 30
0.0
  0
VERTEX
  5
10000306
  8
VISIBLE
 10
15.10413651576701
 20
-5.112101094607739
 30
0.0
  0
VERTEX
  5
10000307
  8
VISIBLE
 10
15.12678690498078
 20
-5.111820283249629
 30
0.0
  0
SEQEND
  5
1000040C
  8
VISIBLE
  0
POLYLINE
  5
1000023F
  8
VISIBLE
 66
     1
 10
0.0
 20
0.0
 30
0.0
  0
VERTEX
  5
10000308
  8
VISIBLE
 10
15.12678690498078
 20
-5.111820283249629
 30
0.0
  0
VERTEX
  5
10000309
  8
VISIBLE
 10
15.17773292429018
 20
-5.112881356425662
 30
0.0
  0
VERTEX
  5
1000030A
  8
VISIBLE
 10
15.22658581096718
 20
-5.11606457595376
 30
0.0
  0
VERTEX
  5
1000030B
  8
VISIBLE
 10
15.27334556501176
 20
-5.121369941833924
 30
0.0
  0
VERTEX
  5
1000030C
  8
VISIBLE
 10
15.31801218642394
 20
-5.128797454066154
 30
0.0
  0
VERTEX
  5
1000030D
  8
VISIBLE
 10
15.36058567520371
 20
-5.138347112650449
 30
0.0
  0
VERTEX
  5
1000030E
  8
VISIBLE
 10
15.40106603135107
 20
-5.15001891758681
 30
0.0
  0
VERTEX
  5
1000030F
  8
VISIBLE
 10
15.43945325486602
 20
-5.163812868875237
 30
0.0
  0
VERTEX
  5
10000310
  8
VISIBLE
 10
15.47574734574857
 20
-5.179728966515729
 30
0.0
  0
VERTEX
  5
10000311
  8
VISIBLE
 10
15.5099483039987
 20
-5.197767210508286
 30
0.0
  0
VERTEX
  5
10000312
  8
VISIBLE
 10
15.54205612961643
 20
-5.21792760085291
 30
0.0
  0
VERTEX
  5
10000313
  8
VISIBLE
 10
15.57207082260175
 20
-5.2402101375496
 30
0.0
  0
VERTEX
  5
10000314
  8
VISIBLE
 10
15.59999238295466
 20
-5.264614820598354
 30
0.0
  0
VERTEX
  5
10000315
  8
VISIBLE
 10
15.62582081067516
 20
-5.291141649999174
 30
0.0
  0
VERTEX
  5
10000316
  8
VISIBLE
 10
15.64955610576325
 20
-5.319790625752059
 30
0.0
  0
VERTEX
  5
10000317
  8
VISIBLE
 10
15.67119826821894
 20
-5.350561747857011
 30
0.0
  0
VERTEX
  5
10000318
  8
VISIBLE
 10
15.69074729804222
 20
-5.383455016314028
 30
0.0
  0
SEQEND
  5
1000040D
  8
VISIBLE
  0
LINE
  5
10000242
  8
VISIBLE
 10
15.69074729804222
 20
-5.383455016314028
 30
0.0
 11
15.7353123714356
 21
-5.383455016314028
 31
0.0
  0
POLYLINE
  5
10000245
  8
VISIBLE
 66
     1
 10
0.0
 20
0.0
 30
0.0
  0
VERTEX
  5
10000319
  8
VISIBLE
 10
15.7353123714356
 20
-5.383455016314028
 30
0.0
  0
VERTEX
  5
1000031A
  8
VISIBLE
 10
15.74493663672758
 20
-5.367501615319691
 30
0.0
  0
VERTEX
  5
1000031B
  8
VISIBLE
 10
15.75510801787596
 20
-5.352004144205681
 30
0.0
  0
VERTEX
  5
1000031C
  8
VISIBLE
 10
15.76582651488073
 20
-5.336962602971997
 30
0.0
  0
VERTEX
  5
1000031D
  8
VISIBLE
 10
15.77709212774189
 20
-5.322376991618639
 30
0.0
  0
VERTEX
  5
1000031E
  8
VISIBLE
 10
15.78890485645944
 20
-5.308247310145608
 30
0.0
  0
VERTEX
  5
1000031F
  8
VISIBLE
 10
15.80126470103338
 20
-5.294573558552905
 30
0.0
  0
VERTEX
  5
10000320
  8
VISIBLE
 10
15.81417166146372
 20
-5.281355736840528
 30
0.0
  0
VERTEX
  5
10000321
  8
VISIBLE
 10
15.82762573775045
 20
-5.268593845008477
 30
0.0
  0
VERTEX
  5
10000322
  8
VISIBLE
 10
15.84162692989357
 20
-5.256287883056752
 30
0.0
  0
VERTEX
  5
10000323
  8
VISIBLE
 10
15.85617523789308
 20
-5.244437850985355
 30
0.0
  0
VERTEX
  5
10000324
  8
VISIBLE
 10
15.87127066174899
 20
-5.233043748794284
 30
0.0
  0
VERTEX
  5
10000325
  8
VISIBLE
 10
15.88691320146128
 20
-5.222105576483539
 30
0.0
  0
VERTEX
  5
10000326
  8
VISIBLE
 10
15.90310285702997
 20
-5.211623334053122
 30
0.0
  0
VERTEX
  5
10000327
  8
VISIBLE
 10
15.91983962845505
 20
-5.20159702150303
 30
0.0
  0
VERTEX
  5
10000328
  8
VISIBLE
 10
15.93712351573652
 20
-5.192026638833266
 30
0.0
  0
VERTEX
  5
10000329
  8
VISIBLE
 10
15.95495451887438
 20
-5.182912186043827
 30
0.0
  0
SEQEND
  5
1000040E
  8
VISIBLE
  0
POLYLINE
  5
10000248
  8
VISIBLE
 66
     1
 10
0.0
 20
0.0
 30
0.0
  0
VERTEX
  5
1000032A
  8
VISIBLE
 10
15.95495451887438
 20
-5.182912186043827
 30
0.0
  0
VERTEX
  5
1000032B
  8
VISIBLE
 10
15.97320622094728
 20
-5.174303400939843
 30
0.0
  0
VERTEX
  5
1000032C
  8
VISIBLE
 10
15.99175220503383
 20
-5.166250021326437
 30
0.0
  0
VERTEX
  5
1000032D
  8
VISIBLE
 10
16.01059247113406
 20
-5.158752047203611
 30
0.0
  0
VERTEX
  5
1000032E
  8
VISIBLE
 10
16.02972701924795
 20
-5.151809478571366
 30
0.0
  0
VERTEX
  5
1000032F
  8
VISIBLE
 10
16.0491558493755
 20
-5.145422315429699
 30
0.0
  0
VERTEX
  5
10000330
  8
VISIBLE
 10
16.06887896151672
 20
-5.139590557778613
 30
0.0
  0
VERTEX
  5
10000331
  8
VISIBLE
 10
16.0888963556716
 20
-5.134314205618105
 30
0.0
  0
VERTEX
  5
10000332
  8
VISIBLE
 10
16.10920803184015
 20
-5.129593258948178
 30
0.0
  0
VERTEX
  5
10000333
  8
VISIBLE
 10
16.12981399002237
 20
-5.125427717768831
 30
0.0
  0
VERTEX
  5
10000334
  8
VISIBLE
 10
16.15071423021825
 20
-5.121817582080063
 30
0.0
  0
VERTEX
  5
10000335
  8
VISIBLE
 10
16.1719087524278
 20
-5.118762851881875
 30
0.0
  0
VERTEX
  5
10000336
  8
VISIBLE
 10
16.19339755665101
 20
-5.116263527174267
 30
0.0
  0
VERTEX
  5
10000337
  8
VISIBLE
 10
16.21518064288788
 20
-5.114319607957238
 30
0.0
  0
VERTEX
  5
10000338
  8
VISIBLE
 10
16.23725801113843
 20
-5.112931094230788
 30
0.0
  0
VERTEX
  5
10000339
  8
VISIBLE
 10
16.25962966140263
 20
-5.112097985994919
 30
0.0
  0
VERTEX
  5
1000033A
  8
VISIBLE
 10
16.28229559368051
 20
-5.111820283249629
 30
0.0
  0
SEQEND
  5
1000040F
  8
VISIBLE
  0
POLYLINE
  5
1000024B
  8
VISIBLE
 66
     1
 10
0.0
 20
0.0
 30
0.0
  0
VERTEX
  5
1000033B
  8
VISIBLE
 10
16.28229559368051
 20
-5.111820283249629
 30
0.0
  0
VERTEX
  5
1000033C
  8
VISIBLE
 10
16.32108797306639
 20
-5.112451331652172
 30
0.0
  0
VERTEX
  5
1000033D
  8
VISIBLE
 10
16.35868042790359
 20
-5.114344476859801
 30
0.0
  0
VERTEX
  5
1000033E
  8
VISIBLE
 10
16.39507295819211
 20
-5.117499718872516
 30
0.0
  0
VERTEX
  5
1000033F
  8
VISIBLE
 10
16.43026556393195
 20
-5.121917057690316
 30
0.0
  0
VERTEX
  5
10000340
  8
VISIBLE
 10
16.46425824512312
 20
-5.127596493313203
 30
0.0
  0
VERTEX
  5
10000341
  8
VISIBLE
 10
16.49705100176561
 20
-5.134538025741175
 30
0.0
  0
VERTEX
  5
10000342
  8
VISIBLE
 10
16.52864383385943
 20
-5.142741654974234
 30
0.0
  0
VERTEX
  5
10000343
  8
VISIBLE
 10
16.55903674140456
 20
-5.152207381012378
 30
0.0
  0
VERTEX
  5
10000344
  8
VISIBLE
 10
16.58822972440102
 20
-5.162935203855608
 30
0.0
  0
VERTEX
  5
10000345
  8
VISIBLE
 10
16.6162227828488
 20
-5.174925123503924
 30
0.0
  0
VERTEX
  5
10000346
  8
VISIBLE
 10
16.6430159167479
 20
-5.188177139957326
 30
0.0
  0
VERTEX
  5
10000347
  8
VISIBLE
 10
16.66860912609832
 20
-5.202691253215814
 30
0.0
  0
VERTEX
  5
10000348
  8
VISIBLE
 10
16.69300241090007
 20
-5.218467463279388
 30
0.0
  0
VERTEX
  5
10000349
  8
VISIBLE
 10
16.71619577115314
 20
-5.235505770148048
 30
0.0
  0
VERTEX
  5
1000034A
  8
VISIBLE
 10
16.73818920685753
 20
-5.253806173821793
 30
0.0
  0
VERTEX
  5
1000034B
  8
VISIBLE
 10
16.75898271801324
 20
-5.273368674300625
 30
0.0
  0
SEQEND
  5
10000410
  8
VISIBLE
  0
POLYLINE
  5
1000024E
  8
VISIBLE
 66
     1
 10
0.0
 20
0.0
 30
0.0
  0
VERTEX
  5
1000034C
  8
VISIBLE
 10
16.75898271801324
 20
-5.273368674300625
 30
0.0
  0
VERTEX
  5
1000034D
  8
VISIBLE
 10
16.77854521849208
 20
-5.294323833322998
 30
0.0
  0
VERTEX
  5
1000034E
  8
VISIBLE
 10
16.79684562216582
 20
-5.316802212627374
 30
0.0
  0
VERTEX
  5
1000034F
  8
VISIBLE
 10
16.81388392903448
 20
-5.340803812213749
 30
0.0
  0
VERTEX
  5
10000350
  8
VISIBLE
 10
16.82966013909805
 20
-5.366328632082124
 30
0.0
  0
VERTEX
  5
10000351
  8
VISIBLE
 10
16.84417425235654
 20
-5.393376672232499
 30
0.0
  0
VERTEX
  5
10000352
  8
VISIBLE
 10
16.85742626880995
 20
-5.421947932664875
 30
0.0
  0
VERTEX
  5
10000353
  8
VISIBLE
 10
16.86941618845826
 20
-5.45204241337925
 30
0.0
  0
VERTEX
  5
10000354
  8
VISIBLE
 10
16.88014401130149
 20
-5.483660114375627
 30
0.0
  0
VERTEX
  5
10000355
  8
VISIBLE
 10
16.88960973733963
 20
-5.516801035654002
 30
0.0
  0
VERTEX
  5
10000356
  8
VISIBLE
 10
16.89781336657269
 20
-5.551465177214379
 30
0.0
  0
VERTEX
  5
10000357
  8
VISIBLE
 10
16.90475489900066
 20
-5.587652539056755
 30
0.0
  0
VERTEX
  5
10000358
  8
VISIBLE
 10
16.91043433462355
 20
-5.625363121181133
 30
0.0
  0
VERTEX
  5
10000359
  8
VISIBLE
 10
16.91485167344135
 20
-5.66459692358751
 30
0.0
  0
VERTEX
  5
1000035A
  8
VISIBLE
 10
16.91800691545407
 20
-5.705353946275887
 30
0.0
  0
VERTEX
  5
1000035B
  8
VISIBLE
 10
16.9199000606617
 20
-5.747634189246265
 30
0.0
  0
VERTEX
  5
1000035C
  8
VISIBLE
 10
16.92053110906424
 20
-5.791437652498643
 30
0.0
  0
SEQEND
  5
10000411
  8
VISIBLE
  0
LINE
  5
10000251
  8
VISIBLE
 10
16.92053110906424
 20
-5.791437652498644
 30
0.0
 11
16.92053110906424
 21
-7.000000000000012
 31
0.0
  0
LINE
  5
10000254
  8
VISIBLE
 10
16.92053110906424
 20
-7.000000000000012
 30
0.0
 11
16.41333813092056
 21
-7.000000000000012
 31
0.0
  0
LINE
  5
10000257
  8
VISIBLE
 10
16.41333813092056
 20
-7.000000000000012
 30
0.0
 11
16.41333813092056
 21
-5.917174823858531
 31
0.0
  0
POLYLINE
  5
1000025A
  8
VISIBLE
 66
     1
 10
0.0
 20
0.0
 30
0.0
  0
VERTEX
  5
1000035D
  8
VISIBLE
 10
16.41333813092056
 20
-5.917174823858531
 30
0.0
  0
VERTEX
  5
1000035E
  8
VISIBLE
 10
16.41307597123937
 20
-5.892498655290127
 30
0.0
  0
VERTEX
  5
1000035F
  8
VISIBLE
 10
16.41228949219581
 20
-5.868605857152467
 30
0.0
  0
VERTEX
  5
10000360
  8
VISIBLE
 10
16.41097869378987
 20
-5.845496429445548
 30
0.0
  0
VERTEX
  5
10000361
  8
VISIBLE
 10
16.40914357602155
 20
-5.823170372169374
 30
0.0
  0
VERTEX
  5
10000362
  8
VISIBLE
 10
16.40678413889086
 20
-5.801627685323942
 30
0.0
  0
VERTEX
  5
10000363
  8
VISIBLE
 10
16.4039003823978
 20
-5.780868368909253
 30
0.0
  0
VERTEX
  5
10000364
  8
VISIBLE
 10
16.40049230654236
 20
-5.760892422925307
 30
0.0
  0
VERTEX
  5
10000365
  8
VISIBLE
 10
16.39655991132454
 20
-5.741699847372105
 30
0.0
  0
VERTEX
  5
10000366
  8
VISIBLE
 10
16.39210319674435
 20
-5.723290642249644
 30
0.0
  0
VERTEX
  5
10000367
  8
VISIBLE
 10
16.38712216280178
 20
-5.705664807557929
 30
0.0
  0
VERTEX
  5
10000368
  8
VISIBLE
 10
16.38161680949684
 20
-5.688822343296954
 30
0.0
  0
VERTEX
  5
10000369
  8
VISIBLE
 10
16.37558713682952
 20
-5.672763249466723
 30
0.0
  0
VERTEX
  5
1000036A
  8
VISIBLE
 10
16.36903314479982
 20
-5.657487526067235
 30
0.0
  0
VERTEX
  5
1000036B
  8
VISIBLE
 10
16.36195483340775
 20
-5.642995173098489
 30
0.0
  0
VERTEX
  5
1000036C
  8
VISIBLE
 10
16.35435220265331
 20
-5.629286190560488
 30
0.0
  0
VERTEX
  5
1000036D
  8
VISIBLE
 10
16.34622525253648
 20
-5.616360578453229
 30
0.0
  0
SEQEND
  5
10000412
  8
VISIBLE
  0
POLYLINE
  5
1000025D
  8
VISIBLE
 66
     1
 10
0.0
 20
0.0
 30
0.0
  0
VERTEX
  5
1000036E
  8
VISIBLE
 10
16.34622525253648
 20
-5.616360578453229
 30
0.0
  0
VERTEX
  5
1000036F
  8
VISIBLE
 10
16.3375346072949
 20
-5.604218336776713
 30
0.0
  0
VERTEX
  5
10000370
  8
VISIBLE
 10
16.32824089116615
 20
-5.59285946553094
 30
0.0
  0
VERTEX
  5
10000371
  8
VISIBLE
 10
16.31834410415024
 20
-5.58228396471591
 30
0.0
  0
VERTEX
  5
10000372
  8
VISIBLE
 10
16.30784424624717
 20
-5.572491834331622
 30
0.0
  0
VERTEX
  5
10000373
  8
VISIBLE
 10
16.29674131745695
 20
-5.563483074378078
 30
0.0
  0
VERTEX
  5
10000374
  8
VISIBLE
 10
16.28503531777956
 20
-5.555257684855277
 30
0.0
  0
VERTEX
  5
10000375
  8
VISIBLE
 10
16.27272624721502
 20
-5.547815665763219
 30
0.0
  0
VERTEX
  5
10000376
  8
VISIBLE
 10
16.25981410576331
 20
-5.541157017101904
 30
0.0
  0
VERTEX
  5
10000377
  8
VISIBLE
 10
16.24629889342445
 20
-5.535281738871332
 30
0.0
  0
VERTEX
  5
10000378
  8
VISIBLE
 10
16.23218061019843
 20
-5.530189831071502
 30
0.0
  0
VERTEX
  5
10000379
  8
VISIBLE
 10
16.21745925608525
 20
-5.525881293702415
 30
0.0
  0
VERTEX
  5
1000037A
  8
VISIBLE
 10
16.2021348310849
 20
-5.522356126764073
 30
0.0
  0
VERTEX
  5
1000037B
  8
VISIBLE
 10
16.1862073351974
 20
-5.519614330256472
 30
0.0
  0
VERTEX
  5
1000037C
  8
VISIBLE
 10
16.16967676842275
 20
-5.517655904179614
 30
0.0
  0
VERTEX
  5
1000037D
  8
VISIBLE
 10
16.15254313076093
 20
-5.516480848533501
 30
0.0
  0
VERTEX
  5
1000037E
  8
VISIBLE
 10
16.13480642221195
 20
-5.516089163318129
 30
0.0
  0
SEQEND
  5
10000413
  8
VISIBLE
  0
POLYLINE
  5
10000260
  8
VISIBLE
 66
     1
 10
0.0
 20
0.0
 30
0.0
  0
VERTEX
  5
1000037F
  8
VISIBLE
 10
16.13480642221195
 20
-5.516089163318129
 30
0.0
  0
VERTEX
  5
10000380
  8
VISIBLE
 10
16.11196122659477
 20
-5.516607265454864
 30
0.0
  0
VERTEX
  5
10000381
  8
VISIBLE
 10
16.08984759119465
 20
-5.518161571865067
 30
0.0
  0
VERTEX
  5
10000382
  8
VISIBLE
 10
16.06846551601161
 20
-5.520752082548742
 30
0.0
  0
VERTEX
  5
10000383
  8
VISIBLE
 10
16.04781500104563
 20
-5.524378797505885
 30
0.0
  0
VERTEX
  5
10000384
  8
VISIBLE
 10
16.02789604629673
 20
-5.529041716736498
 30
0.0
  0
VERTEX
  5
10000385
  8
VISIBLE
 10
16.00870865176489
 20
-5.534740840240581
 30
0.0
  0
VERTEX
  5
10000386
  8
VISIBLE
 10
15.99025281745013
 20
-5.541476168018133
 30
0.0
  0
VERTEX
  5
10000387
  8
VISIBLE
 10
15.97252854335243
 20
-5.549247700069154
 30
0.0
  0
VERTEX
  5
10000388
  8
VISIBLE
 10
15.9555358294718
 20
-5.558055436393645
 30
0.0
  0
VERTEX
  5
10000389
  8
VISIBLE
 10
15.93927467580825
 20
-5.567899376991607
 30
0.0
  0
VERTEX
  5
1000038A
  8
VISIBLE
 10
15.92374508236176
 20
-5.578779521863036
 30
0.0
  0
VERTEX
  5
1000038B
  8
VISIBLE
 10
15.90894704913234
 20
-5.590695871007936
 30
0.0
  0
VERTEX
  5
1000038C
  8
VISIBLE
 10
15.89488057611999
 20
-5.603648424426305
 30
0.0
  0
VERTEX
  5
1000038D
  8
VISIBLE
 10
15.88154566332471
 20
-5.617637182118145
 30
0.0
  0
VERTEX
  5
1000038E
  8
VISIBLE
 10
15.8689423107465
 20
-5.632662144083453
 30
0.0
  0
VERTEX
  5
1000038F
  8
VISIBLE
 10
15.85707051838536
 20
-5.648723310322231
 30
0.0
  0
SEQEND
  5
10000414
  8
VISIBLE
  0
POLYLINE
  5
10000263
  8
VISIBLE
 66
     1
 10
0.0
 20
0.0
 30
0.0
  0
VERTEX
  5
10000390
  8
VISIBLE
 10
15.85707051838536
 20
-5.648723310322231
 30
0.0
  0
VERTEX
  5
10000391
  8
VISIBLE
 10
15.84592406901565
 20
-5.665911866810544
 30
0.0
  0
VERTEX
  5
10000392
  8
VISIBLE
 10
15.83549674541172
 20
-5.684318999524456
 30
0.0
  0
VERTEX
  5
10000393
  8
VISIBLE
 10
15.82578854757359
 20
-5.703944708463969
 30
0.0
  0
VERTEX
  5
10000394
  8
VISIBLE
 10
15.81679947550124
 20
-5.724788993629083
 30
0.0
  0
VERTEX
  5
10000395
  8
VISIBLE
 10
15.80852952919468
 20
-5.746851855019797
 30
0.0
  0
VERTEX
  5
10000396
  8
VISIBLE
 10
15.80097870865391
 20
-5.77013329263611
 30
0.0
  0
VERTEX
  5
10000397
  8
VISIBLE
 10
15.79414701387892
 20
-5.794633306478023
 30
0.0
  0
VERTEX
  5
10000398
  8
VISIBLE
 10
15.78803444486973
 20
-5.820351896545537
 30
0.0
  0
VERTEX
  5
10000399
  8
VISIBLE
 10
15.78264100162632
 20
-5.847289062838651
 30
0.0
  0
VERTEX
  5
1000039A
  8
VISIBLE
 10
15.77796668414869
 20
-5.875444805357365
 30
0.0
  0
VERTEX
  5
1000039B
  8
VISIBLE
 10
15.77401149243686
 20
-5.90481912410168
 30
0.0
  0
VERTEX
  5
1000039C
  8
VISIBLE
 10
15.77077542649082
 20
-5.935412019071595
 30
0.0
  0
VERTEX
  5
1000039D
  8
VISIBLE
 10
15.76825848631056
 20
-5.967223490267109
 30
0.0
  0
VERTEX
  5
1000039E
  8
VISIBLE
 10
15.76646067189609
 20
-6.000253537688224
 30
0.0
  0
VERTEX
  5
1000039F
  8
VISIBLE
 10
15.76538198324741
 20
-6.034502161334939
 30
0.0
  0
VERTEX
  5
100003A0
  8
VISIBLE
 10
15.76502242036451
 20
-6.069969361207255
 30
0.0
  0
SEQEND
  5
10000415
  8
VISIBLE
  0
LINE
  5
10000266
  8
VISIBLE
 10
13.36434435959029
 20
-4.575978329353061
 30
0.0
 11
13.82378904481249
 21
-4.575978329353061
 31
0.0
  0
LINE
  5
10000269
  8
VISIBLE
 10
13.82378904481249
 20
-4.575978329353061
 30
0.0
 11
12.91975469883254
 21
-7.000000000000012
 31
0.0
  0
LINE
  5
1000026C
  8
VISIBLE
 10
12.91975469883254
 20
-7.000000000000012
 30
0.0
 11
12.46084055019835
 21
-7.000000000000012
 31
0.0
  0
LINE
  5
1000026F
  8
VISIBLE
 10
12.46084055019835
 20
-7.000000000000012
 30
0.0
 11
13.36434435959029
 21
-4.575978329353061
 31
0.0
  0
POLYLINE
  5
10000272
  8
VISIBLE
 66
     1
 10
0.0
 20
0.0
 30
0.0
  0
VERTEX
  5
100003A1
  8
VISIBLE
 10
11.87645449849828
 20
-5.207051600798573
 30
0.0
  0
VERTEX
  5
100003A2
  8
VISIBLE
 10
11.89489168113612
 20
-5.195519683439131
 30
0.0
  0
VERTEX
  5
100003A3
  8
VISIBLE
 10
11.91352988740302
 20
-5.18473176074804
 30
0.0
  0
VERTEX
  5
100003A4
  8
VISIBLE
 10
11.93236911729897
 20
-5.174687832725299
 30
0.0
  0
VERTEX
  5
100003A5
  8
VISIBLE
 10
11.95140937082397
 20
-5.16538789937091
 30
0.0
  0
VERTEX
  5
100003A6
  8
VISIBLE
 10
11.97065064797803
 20
-5.156831960684872
 30
0.0
  0
VERTEX
  5
100003A7
  8
VISIBLE
 10
11.99009294876114
 20
-5.149020016667186
 30
0.0
  0
VERTEX
  5
100003A8
  8
VISIBLE
 10
12.0097362731733
 20
-5.14195206731785
 30
0.0
  0
VERTEX
  5
100003A9
  8
VISIBLE
 10
12.02958062121451
 20
-5.135628112636865
 30
0.0
  0
VERTEX
  5
100003AA
  8
VISIBLE
 10
12.04962599288478
 20
-5.130048152624232
 30
0.0
  0
VERTEX
  5
100003AB
  8
VISIBLE
 10
12.0698723881841
 20
-5.125212187279949
 30
0.0
  0
VERTEX
  5
100003AC
  8
VISIBLE
 10
12.09031980711248
 20
-5.121120216604018
 30
0.0
  0
VERTEX
  5
100003AD
  8
VISIBLE
 10
12.1109682496699
 20
-5.117772240596437
 30
0.0
  0
VERTEX
  5
100003AE
  8
VISIBLE
 10
12.13181771585638
 20
-5.115168259257209
 30
0.0
  0
VERTEX
  5
100003AF
  8
VISIBLE
 10
12.15286820567192
 20
-5.113308272586331
 30
0.0
  0
VERTEX
  5
100003B0
  8
VISIBLE
 10
12.1741197191165
 20
-5.112192280583804
 30
0.0
  0
VERTEX
  5
100003B1
  8
VISIBLE
 10
12.19557225619014
 20
-5.111820283249629
 30
0.0
  0
SEQEND
  5
10000416
  8
VISIBLE
  0
POLYLINE
  5
10000275
  8
VISIBLE
 66
     1
 10
0.0
 20
0.0
 30
0.0
  0
VERTEX
  5
100003B2
  8
VISIBLE
 10
12.19557225619014
 20
-5.111820283249629
 30
0.0
  0
VERTEX
  5
100003B3
  8
VISIBLE
 10
12.20830098948544
 20
-5.111878310688944
 30
0.0
  0
VERTEX
  5
100003B4
  8
VISIBLE
 10
12.22075616485255
 20
-5.112052393006886
 30
0.0
  0
VERTEX
  5
100003B5
  8
VISIBLE
 10
12.23293778229146
 20
-5.112342530203458
 30
0.0
  0
VERTEX
  5
100003B6
  8
VISIBLE
 10
12.24484584180217
 20
-5.112748722278658
 30
0.0
  0
VERTEX
  5
100003B7
  8
VISIBLE
 10
12.25648034338468
 20
-5.113270969232486
 30
0.0
  0
VERTEX
  5
100003B8
  8
VISIBLE
 10
12.267841287039
 20
-5.113909271064943
 30
0.0
  0
VERTEX
  5
100003B9
  8
VISIBLE
 10
12.27892867276513
 20
-5.11466362777603
 30
0.0
  0
VERTEX
  5
100003BA
  8
VISIBLE
 10
12.28974250056306
 20
-5.115534039365744
 30
0.0
  0
VERTEX
  5
100003BB
  8
VISIBLE
 10
12.30028277043279
 20
-5.116520505834087
 30
0.0
  0
VERTEX
  5
100003BC
  8
VISIBLE
 10
12.31054948237433
 20
-5.117623027181059
 30
0.0
  0
VERTEX
  5
100003BD
  8
VISIBLE
 10
12.32054263638767
 20
-5.118841603406659
 30
0.0
  0
VERTEX
  5
100003BE
  8
VISIBLE
 10
12.33026223247281
 20
-5.120176234510888
 30
0.0
  0
VERTEX
  5
100003BF
  8
VISIBLE
 10
12.33970827062976
 20
-5.121626920493745
 30
0.0
  0
VERTEX
  5
100003C0
  8
VISIBLE
 10
12.34888075085851
 20
-5.123193661355231
 30
0.0
  0
VERTEX
  5
100003C1
  8
VISIBLE
 10
12.35777967315907
 20
-5.124876457095345
 30
0.0
  0
VERTEX
  5
100003C2
  8
VISIBLE
 10
12.36640503753143
 20
-5.126675307714089
 30
0.0
  0
SEQEND
  5
10000417
  8
VISIBLE
  0
LINE
  5
10000278
  8
VISIBLE
 10
12.36640503753143
 20
-5.126675307714089
 30
0.0
 11
12.32820640319425
 21
-5.600444480812738
 31
0.0
  0
POLYLINE
  5
1000027B
  8
VISIBLE
 66
     1
 10
0.0
 20
0.0
 30
0.0
  0
VERTEX
  5
100003C3
  8
VISIBLE
 10
12.32820640319425
 20
-5.600444480812738
 30
0.0
  0
VERTEX
  5
100003C4
  8
VISIBLE
 10
12.32041207464921
 20
-5.598452896199129
 30
0.0
  0
VERTEX
  5
100003C5
  8
VISIBLE
 10
12.31241465006657
 20
-5.596589800915431
 30
0.0
  0
VERTEX
  5
100003C6
  8
VISIBLE
 10
12.30421412944633
 20
-5.594855194961642
 30
0.0
  0
VERTEX
  5
100003C7
  8
VISIBLE
 10
12.2958105127885
 20
-5.593249078337765
 30
0.0
  0
VERTEX
  5
100003C8
  8
VISIBLE
 10
12.28720380009305
 20
-5.591771451043797
 30
0.0
  0
VERTEX
  5
100003C9
  8
VISIBLE
 10
12.27839399136002
 20
-5.59042231307974
 30
0.0
  0
VERTEX
  5
100003CA
  8
VISIBLE
 10
12.26938108658938
 20
-5.589201664445593
 30
0.0
  0
VERTEX
  5
100003CB
  8
VISIBLE
 10
12.26016508578114
 20
-5.588109505141356
 30
0.0
  0
VERTEX
  5
100003CC
  8
VISIBLE
 10
12.2507459889353
 20
-5.587145835167029
 30
0.0
  0
VERTEX
  5
100003CD
  8
VISIBLE
 10
12.24112379605187
 20
-5.586310654522613
 30
0.0
  0
VERTEX
  5
100003CE
  8
VISIBLE
 10
12.23129850713083
 20
-5.585603963208106
 30
0.0
  0
VERTEX
  5
100003CF
  8
VISIBLE
 10
12.22127012217219
 20
-5.585025761223511
 30
0.0
  0
VERTEX
  5
100003D0
  8
VISIBLE
 10
12.21103864117595
 20
-5.584576048568825
 30
0.0
  0
VERTEX
  5
100003D1
  8
VISIBLE
 10
12.20060406414211
 20
-5.584254825244049
 30
0.0
  0
VERTEX
  5
100003D2
  8
VISIBLE
 10
12.18996639107067
 20
-5.584062091249185
 30
0.0
  0
VERTEX
  5
100003D3
  8
VISIBLE
 10
12.17912562196164
 20
-5.583997846584229
 30
0.0
  0
SEQEND
  5
10000418
  8
VISIBLE
  0
POLYLINE
  5
1000027E
  8
VISIBLE
 66
     1
 10
0.0
 20
0.0
 30
0.0
  0
VERTEX
  5
100003D4
  8
VISIBLE
 10
12.17912562196164
 20
-5.583997846584229
 30
0.0
  0
VERTEX
  5
100003D5
  8
VISIBLE
 10
12.14930159056264
 20
-5.584483826388486
 30
0.0
  0
VERTEX
  5
100003D6
  8
VISIBLE
 10
12.12031066739951
 20
-5.585941765801257
 30
0.0
  0
VERTEX
  5
100003D7
  8
VISIBLE
 10
12.09215285247224
 20
-5.588371664822544
 30
0.0
  0
VERTEX
  5
100003D8
  8
VISIBLE
 10
12.06482814578085
 20
-5.591773523452344
 30
0.0
  0
VERTEX
  5
100003D9
  8
VISIBLE
 10
12.03833654732533
 20
-5.596147341690659
 30
0.0
  0
VERTEX
  5
100003DA
  8
VISIBLE
 10
12.01267805710568
 20
-5.601493119537489
 30
0.0
  0
VERTEX
  5
100003DB
  8
VISIBLE
 10
11.98785267512189
 20
-5.607810856992832
 30
0.0
  0
VERTEX
  5
100003DC
  8
VISIBLE
 10
11.96386040137398
 20
-5.61510055405669
 30
0.0
  0
VERTEX
  5
100003DD
  8
VISIBLE
 10
11.94070123586194
 20
-5.623362210729063
 30
0.0
  0
VERTEX
  5
100003DE
  8
VISIBLE
 10
11.91837517858576
 20
-5.632595827009951
 30
0.0
  0
VERTEX
  5
100003DF
  8
VISIBLE
 10
11.89688222954546
 20
-5.642801402899352
 30
0.0
  0
VERTEX
  5
100003E0
  8
VISIBLE
 10
11.87622238874102
 20
-5.653978938397268
 30
0.0
  0
VERTEX
  5
100003E1
  8
VISIBLE
 10
11.85639565617246
 20
-5.666128433503697
 30
0.0
  0
VERTEX
  5
100003E2
  8
VISIBLE
 10
11.83740203183976
 20
-5.679249888218642
 30
0.0
  0
VERTEX
  5
100003E3
  8
VISIBLE
 10
11.81924151574293
 20
-5.693343302542102
 30
0.0
  0
VERTEX
  5
100003E4
  8
VISIBLE
 10
11.80191410788197
 20
-5.708408676474075
 30
0.0
  0
SEQEND
  5
10000419
  8
VISIBLE
  0
POLYLINE
  5
10000281
  8
VISIBLE
 66
     1
 10
0.0
 20
0.0
 30
0.0
  0
VERTEX
  5
100003E5
  8
VISIBLE
 10
11.80191410788197
 20
-5.708408676474075
 30
0.0
  0
VERTEX
  5
100003E6
  8
VISIBLE
 10
11.78553171831842
 20
-5.724348606812857
 30
0.0
  0
VERTEX
  5
100003E7
  8
VISIBLE
 10
11.77020625711381
 20
-5.741065690356741
 30
0.0
  0
VERTEX
  5
100003E8
  8
VISIBLE
 10
11.75593772426813
 20
-5.758559927105728
 30
0.0
  0
VERTEX
  5
100003E9
  8
VISIBLE
 10
11.74272611978139
 20
-5.776831317059816
 30
0.0
  0
VERTEX
  5
100003EA
  8
VISIBLE
 10
11.7305714436536
 20
-5.795879860219006
 30
0.0
  0
VERTEX
  5
100003EB
  8
VISIBLE
 10
11.71947369588474
 20
-5.8157055565833
 30
0.0
  0
VERTEX
  5
100003EC
  8
VISIBLE
 10
11.70943287647482
 20
-5.836308406152694
 30
0.0
  0
VERTEX
  5
100003ED
  8
VISIBLE
 10
11.70044898542384
 20
-5.857688408927191
 30
0.0
  0
VERTEX
  5
100003EE
  8
VISIBLE
 10
11.6925220227318
 20
-5.87984556490679
 30
0.0
  0
VERTEX
  5
100003EF
  8
VISIBLE
 10
11.68565198839869
 20
-5.902779874091491
 30
0.0
  0
VERTEX
  5
100003F0
  8
VISIBLE
 10
11.67983888242453
 20
-5.926491336481296
 30
0.0
  0
VERTEX
  5
100003F1
  8
VISIBLE
 10
11.6750827048093
 20
-5.950979952076201
 30
0.0
  0
VERTEX
  5
100003F2
  8
VISIBLE
 10
11.67138345555302
 20
-5.976245720876209
 30
0.0
  0
VERTEX
  5
100003F3
  8
VISIBLE
 10
11.66874113465567
 20
-6.002288642881319
 30
0.0
  0
VERTEX
  5
100003F4
  8
VISIBLE
 10
11.66715574211726
 20
-6.029108718091531
 30
0.0
  0
VERTEX
  5
100003F5
  8
VISIBLE
 10
11.66662727793779
 20
-6.056705946506845
 30
0.0
  0
SEQEND
  5
1000041A
  8
VISIBLE
  0
LINE
  5
10000284
  8
VISIBLE
 10
11.66662727793779
 20
-6.056705946506844
 30
0.0
 11
11.66662727793779
 21
-7.000000000000012
 31
0.0
  0
LINE
  5
10000287
  8
VISIBLE
 10
11.66662727793779
 20
-7.000000000000012
 30
0.0
 11
11.16102590955816
 21
-7.000000000000012
 31
0.0
  0
LINE
  5
1000028A
  8
VISIBLE
 10
11.16102590955816
 20
-7.000000000000012
 30
0.0
 11
11.16102590955816
 21
-5.146305161470695
 31
0.0
  0
LINE
  5
1000028D
  8
VISIBLE
 10
11.16102590955816
 20
-5.146305161470695
 30
0.0
 11
11.544073326106
 21
-5.146305161470695
 31
0.0
  0
LINE
  5
10000290
  8
VISIBLE
 10
11.544073326106
 20
-5.146305161470695
 30
0.0
 11
11.61887898501631
 21
-5.458260675224341
 31
0.0
  0
LINE
  5
10000293
  8
VISIBLE
 10
11.61887898501631
 20
-5.458260675224341
 30
0.0
 11
11.64328366806507
 21
-5.458260675224341
 31
0.0
  0
POLYLINE
  5
10000296
  8
VISIBLE
 66
     1
 10
0.0
 20
0.0
 30
0.0
  0
VERTEX
  5
100003F6
  8
VISIBLE
 10
11.64328366806507
 20
-5.458260675224341
 30
0.0
  0
VERTEX
  5
100003F7
  8
VISIBLE
 10
11.65432856941598
 20
-5.439000746393363
 30
0.0
  0
VERTEX
  5
100003F8
  8
VISIBLE
 10
11.66584390750705
 20
-5.420215399119634
 30
0.0
  0
VERTEX
  5
100003F9
  8
VISIBLE
 10
11.67782968233827
 20
-5.401904633403153
 30
0.0
  0
VERTEX
  5
100003FA
  8
VISIBLE
 10
11.69028589390965
 20
-5.384068449243922
 30
0.0
  0
VERTEX
  5
100003FB
  8
VISIBLE
 10
11.70321254222118
 20
-5.36670684664194
 30
0.0
  0
VERTEX
  5
100003FC
  8
VISIBLE
 10
11.71660962727287
 20
-5.349819825597207
 30
0.0
  0
VERTEX
  5
100003FD
  8
VISIBLE
 10
11.73047714906471
 20
-5.333407386109723
 30
0.0
  0
VERTEX
  5
100003FE
  8
VISIBLE
 10
11.74481510759671
 20
-5.317469528179487
 30
0.0
  0
VERTEX
  5
100003FF
  8
VISIBLE
 10
11.75962350286886
 20
-5.302006251806501
 30
0.0
  0
VERTEX
  5
10000400
  8
VISIBLE
 10
11.77490233488117
 20
-5.287017556990765
 30
0.0
  0
VERTEX
  5
10000401
  8
VISIBLE
 10
11.79065160363363
 20
-5.272503443732277
 30
0.0
  0
VERTEX
  5
10000402
  8
VISIBLE
 10
11.80687130912625
 20
-5.258463912031038
 30
0.0
  0
VERTEX
  5
10000403
  8
VISIBLE
 10
11.82356145135903
 20
-5.244898961887048
 30
0.0
  0
VERTEX
  5
10000404
  8
VISIBLE
 10
11.84072203033196
 20
-5.231808593300308
 30
0.0
  0
VERTEX
  5
10000405
  8
VISIBLE
 10
11.85835304604504
 20
-5.219192806270816
 30
0.0
  0
VERTEX
  5
10000406
  8
VISIBLE
 10
11.87645449849828
 20
-5.207051600798573
 30
0.0
  0
SEQEND
  5
1000041B
  8
VISIBLE
  0
ENDSEC
  0
EOF
